<svg width="36" height="36" viewBox="0 0 36 36" fill="none" xmlns="http://www.w3.org/2000/svg">
<path d="M4.53809 17.7105C4.57378 21.2519 6.02463 24.6375 8.31688 27.1645L6.05318 27.4707C5.20322 27.4793 4.64372 28.1933 4.79395 29.0418C4.80251 29.8917 5.51652 30.4512 6.36505 30.301L10.187 29.9792C12.0271 29.8189 13.428 28.2464 13.4095 26.4048L13.4066 26.1215L13.0848 22.2996C13.0762 21.4496 12.3622 20.8901 11.5137 21.0403C10.6637 21.0489 10.1042 21.7629 10.2544 22.6114L10.4246 25.4432C8.56166 23.3369 7.40126 20.6568 7.37271 17.8236C7.3099 11.5906 12.3583 6.43942 18.5913 6.37661C24.8243 6.3138 29.9754 11.3622 30.0382 17.5952C30.101 23.8282 25.0527 28.9793 18.8197 29.0421C17.9697 29.0507 17.4088 29.623 17.4173 30.473C17.4259 31.323 17.9983 31.8839 18.8482 31.8753C26.6395 31.7968 32.9499 25.3579 32.8714 17.5666C32.7929 9.77535 26.354 3.46491 18.5627 3.54342C10.77 3.48027 4.45958 9.91919 4.53809 17.7105Z" fill="#E3644D"/>
</svg>
