<svg width="13" height="3" viewBox="0 0 13 3" fill="none" xmlns="http://www.w3.org/2000/svg">
<path fill-rule="evenodd" clip-rule="evenodd" d="M2.625 1.5C2.625 2.12132 2.12132 2.625 1.5 2.625C0.87868 2.625 0.375 2.12132 0.375 1.5C0.375 0.87868 0.87868 0.375 1.5 0.375C2.12132 0.375 2.625 0.87868 2.625 1.5ZM7.625 1.5C7.625 2.12132 7.12132 2.625 6.5 2.625C5.87868 2.625 5.375 2.12132 5.375 1.5C5.375 0.87868 5.87868 0.375 6.5 0.375C7.12132 0.375 7.625 0.87868 7.625 1.5ZM11.5 2.625C12.1213 2.625 12.625 2.12132 12.625 1.5C12.625 0.87868 12.1213 0.375 11.5 0.375C10.8787 0.375 10.375 0.87868 10.375 1.5C10.375 2.12132 10.8787 2.625 11.5 2.625Z" fill="#18181B"/>
</svg>
