<svg width="417" height="120" viewBox="0 0 417 120" fill="none" xmlns="http://www.w3.org/2000/svg">
<path d="M48 84.3878C40.0777 98.7385 37.2548 75.9079 24 75.9079C10.7452 75.9079 5.59223 98.0862 0 84.3878C0 65.8346 10.7452 50.7942 24 50.7942C37.2548 50.7942 48 65.8346 48 84.3878Z" fill="white"/>
<path d="M48 72.6936C40.0777 87.0443 37.2548 64.2137 24 64.2137C10.7452 64.2137 5.59223 86.392 0 72.6936C0 54.1404 10.7452 39.1 24 39.1C37.2548 39.1 48 54.1404 48 72.6936Z" fill="#FF8E5B"/>
<path d="M127.839 45.8C128.415 46.632 128.607 47.944 128.415 49.736C128.287 51.464 127.967 53.352 127.455 55.4C126.943 57.384 126.335 59.368 125.631 61.352C124.927 63.272 124.351 64.872 123.903 66.152C122.815 69.096 121.855 71.848 121.023 74.408C120.191 76.968 119.199 79.784 118.047 82.856C117.663 83.752 117.279 84.648 116.895 85.544C116.575 86.44 116.159 87.24 115.647 87.944C115.199 88.648 114.623 89.224 113.919 89.672C113.279 90.12 112.479 90.344 111.519 90.344C110.431 90.344 109.471 89.96 108.639 89.192C107.871 88.424 107.199 87.464 106.623 86.312C106.111 85.16 105.663 83.944 105.279 82.664C104.895 81.384 104.575 80.264 104.319 79.304C103.487 76.488 102.751 73.928 102.111 71.624C101.471 69.256 100.895 67.144 100.383 65.288C99.8073 67.144 99.2313 69.16 98.6553 71.336C98.0793 73.512 97.3433 75.976 96.4473 78.728C96.1913 79.688 95.8713 80.872 95.4873 82.28C95.1033 83.624 94.6233 84.904 94.0473 86.12C93.5353 87.336 92.8633 88.36 92.0312 89.192C91.2633 90.088 90.3353 90.472 89.2473 90.344C87.7113 90.28 86.3673 89.672 85.2153 88.52C84.1273 87.304 83.1673 85.864 82.3353 84.2C81.5673 82.536 80.8953 80.808 80.3193 79.016C79.7433 77.224 79.2633 75.656 78.8793 74.312C78.3673 72.584 77.7593 70.664 77.0553 68.552C76.3513 66.44 75.6473 64.296 74.9433 62.12C74.3033 59.88 73.6953 57.672 73.1193 55.496C72.5433 53.256 72.1593 51.208 71.9673 49.352C71.8393 48.136 72.0633 47.016 72.6393 45.992C73.2793 44.968 74.0793 44.264 75.0393 43.88C76.0633 43.432 77.1513 43.336 78.3033 43.592C79.5193 43.848 80.6073 44.616 81.5673 45.896C82.0793 46.536 82.5273 47.336 82.9113 48.296C83.3593 49.256 83.7433 50.312 84.0633 51.464C84.3833 52.552 84.7033 53.672 85.0233 54.824C85.3433 55.976 85.6633 57.096 85.9833 58.184C86.6873 60.616 87.2633 62.536 87.7113 63.944C88.2233 65.288 88.7353 66.696 89.2473 68.168C89.6953 66.696 90.1433 65.288 90.5913 63.944C91.1033 62.536 91.7113 60.616 92.4153 58.184C92.6713 57.416 92.9593 56.552 93.2793 55.592C93.6633 54.568 94.0473 53.608 94.4313 52.712C94.8793 51.816 95.3593 50.984 95.8713 50.216C96.4473 49.384 97.0553 48.776 97.6953 48.392C99.1033 47.432 100.383 47.208 101.535 47.72C102.687 48.168 103.679 48.968 104.511 50.12C105.343 51.272 106.047 52.616 106.623 54.152C107.263 55.624 107.775 56.968 108.159 58.184C108.543 59.464 108.895 60.584 109.215 61.544C109.535 62.44 109.823 63.272 110.079 64.04C110.335 64.808 110.559 65.544 110.751 66.248C111.007 66.952 111.263 67.688 111.519 68.456C111.775 67.688 111.999 66.952 112.191 66.248C112.447 65.544 112.703 64.808 112.959 64.04C113.215 63.272 113.503 62.44 113.823 61.544C114.143 60.584 114.495 59.464 114.879 58.184C115.135 57.352 115.391 56.392 115.647 55.304C115.967 54.216 116.287 53.128 116.607 52.04C116.927 50.888 117.247 49.8 117.567 48.776C117.951 47.752 118.367 46.888 118.815 46.184C119.263 45.48 119.871 44.904 120.639 44.456C121.407 43.944 122.207 43.656 123.039 43.592C123.871 43.464 124.703 43.56 125.535 43.88C126.431 44.2 127.199 44.84 127.839 45.8ZM145.635 48.584C147.555 47.624 149.571 46.952 151.683 46.568C153.795 46.12 155.875 46.024 157.923 46.28C160.035 46.472 162.051 47.016 163.971 47.912C165.891 48.744 167.683 49.96 169.347 51.56C171.011 53.224 172.291 55.048 173.187 57.032C174.083 59.016 174.723 61.224 175.107 63.656C175.363 65.32 175.779 66.856 176.355 68.264C176.931 69.672 177.539 71.08 178.179 72.488C178.883 73.896 179.523 75.304 180.099 76.712C180.739 78.12 181.251 79.592 181.635 81.128C181.955 82.6 181.826 84.04 181.25 85.448C180.739 86.792 179.651 87.624 177.987 87.944C177.027 88.136 176.099 88.072 175.203 87.752C174.371 87.368 173.603 86.856 172.899 86.216C172.195 85.512 171.555 84.776 170.979 84.008C170.467 83.176 169.987 82.408 169.539 81.704C168.067 83.624 166.467 85.128 164.739 86.216C163.011 87.24 160.931 87.912 158.499 88.232C156.451 88.488 154.499 88.552 152.643 88.424C150.787 88.296 148.803 87.944 146.691 87.368C143.939 86.664 141.667 85.448 139.875 83.72C138.147 81.928 136.803 79.88 135.843 77.576C134.947 75.208 134.467 72.68 134.403 69.992C134.339 67.304 134.659 64.648 135.363 62.024C136.259 58.568 137.603 55.752 139.395 53.576C141.187 51.4 143.267 49.736 145.635 48.584ZM148.035 59.816C147.139 60.712 146.435 61.768 145.923 62.984C145.411 64.2 145.091 65.48 144.963 66.824C144.899 68.168 145.027 69.512 145.347 70.856C145.667 72.2 146.179 73.384 146.883 74.408C147.523 75.304 148.611 76.072 150.147 76.712C151.683 77.288 153.283 77.64 154.947 77.768C156.867 77.896 158.531 77.384 159.939 76.232C161.411 75.08 162.499 73.64 163.203 71.912C163.971 70.12 164.323 68.232 164.259 66.248C164.195 64.2 163.651 62.344 162.627 60.68C161.859 59.464 160.835 58.568 159.555 57.992C158.339 57.416 157.027 57.128 155.619 57.128C154.211 57.064 152.803 57.288 151.395 57.8C150.051 58.248 148.931 58.92 148.035 59.816ZM189.813 28.328C189.941 26.024 190.645 24.168 191.925 22.76C193.269 21.352 195.157 20.968 197.589 21.608C198.741 21.928 199.573 22.408 200.085 23.048C200.661 23.688 201.045 24.456 201.237 25.352C201.493 26.184 201.621 27.112 201.621 28.136C201.621 29.096 201.621 30.056 201.621 31.016V44.264C201.557 44.776 201.525 45.288 201.525 45.8C201.589 46.248 201.621 46.664 201.621 47.048V48.296H204.021C204.725 48.296 205.397 48.296 206.037 48.296C206.741 48.296 207.349 48.264 207.861 48.2C211.381 48.2 214.389 48.712 216.885 49.736C219.445 50.76 221.493 52.2 223.029 54.056C224.629 55.848 225.781 58.024 226.485 60.584C227.253 63.08 227.605 65.832 227.541 68.84C227.477 72.424 226.901 75.496 225.813 78.056C224.725 80.616 223.189 82.728 221.205 84.392C219.221 86.056 216.821 87.304 214.005 88.136C211.253 88.904 208.149 89.288 204.693 89.288C200.725 89.288 197.717 89.256 195.669 89.192C193.621 89.128 192.149 88.552 191.253 87.464C190.421 86.376 189.973 84.488 189.909 81.8C189.845 79.112 189.813 75.176 189.813 69.992C189.813 65 189.813 60.072 189.813 55.208C189.877 50.344 189.877 45.448 189.813 40.52C189.813 39.88 189.781 39.208 189.717 38.504C189.717 37.8 189.717 37 189.717 36.104C189.717 35.208 189.717 34.152 189.717 32.936C189.717 31.656 189.749 30.12 189.813 28.328ZM207.765 78.536C211.285 78.344 213.717 77.384 215.061 75.656C215.765 74.696 216.309 73.544 216.693 72.2C217.077 70.856 217.237 69.512 217.173 68.168C217.109 66.824 216.821 65.544 216.309 64.328C215.861 63.048 215.125 61.992 214.101 61.16C213.205 60.392 212.309 59.848 211.413 59.528C210.517 59.144 209.589 58.92 208.629 58.856C207.669 58.728 206.645 58.696 205.557 58.76C204.469 58.76 203.221 58.792 201.813 58.856V70.376L201.621 78.344C202.261 78.408 202.933 78.472 203.637 78.536C204.853 78.664 206.229 78.664 207.765 78.536ZM247.374 52.616C247.374 54.408 247.374 56.424 247.374 58.664C247.438 60.904 247.47 63.24 247.47 65.672C247.47 68.04 247.47 70.408 247.47 72.776C247.47 75.08 247.438 77.224 247.374 79.208C247.31 80.168 247.214 81.224 247.086 82.376C246.958 83.464 246.702 84.488 246.318 85.448C245.934 86.408 245.326 87.208 244.494 87.848C243.726 88.424 242.67 88.68 241.326 88.616C239.342 88.488 237.902 87.624 237.006 86.024C236.174 84.424 235.694 82.184 235.566 79.304C235.566 77.832 235.534 76.136 235.47 74.216C235.47 72.296 235.438 70.344 235.374 68.36C235.374 66.376 235.374 64.456 235.374 62.6C235.374 60.68 235.374 58.952 235.374 57.416C235.374 56.52 235.342 55.432 235.278 54.152C235.278 52.872 235.31 51.56 235.374 50.216C235.438 48.872 235.598 47.592 235.854 46.376C236.11 45.096 236.526 44.04 237.102 43.208C237.55 42.696 238.19 42.312 239.022 42.056C239.854 41.736 240.718 41.576 241.614 41.576C242.574 41.576 243.47 41.736 244.302 42.056C245.198 42.376 245.838 42.824 246.222 43.4C246.478 43.784 246.67 44.328 246.798 45.032C246.926 45.736 247.022 46.536 247.086 47.432C247.214 48.264 247.278 49.16 247.278 50.12C247.342 51.016 247.374 51.848 247.374 52.616ZM243.726 33.224C241.742 33.736 240.078 33.544 238.734 32.648C237.454 31.688 236.654 30.28 236.334 28.424C236.078 27.08 236.174 25.896 236.622 24.872C237.07 23.848 237.742 23.08 238.638 22.568C239.534 21.992 240.558 21.736 241.71 21.8C242.862 21.864 244.014 22.312 245.166 23.144C246.254 23.912 247.022 24.808 247.47 25.832C247.982 26.856 248.142 27.848 247.95 28.808C247.822 29.768 247.406 30.664 246.702 31.496C245.998 32.264 245.006 32.84 243.726 33.224ZM278.753 72.104C277.537 71.336 276.161 70.728 274.625 70.28C273.153 69.832 271.617 69.416 270.017 69.032C268.481 68.648 266.977 68.232 265.505 67.784C264.033 67.272 262.689 66.568 261.473 65.672C258.849 63.688 257.313 61.256 256.865 58.376C256.481 55.432 257.121 52.488 258.785 49.544C259.681 48.008 260.865 46.76 262.337 45.8C263.809 44.776 265.409 44.008 267.137 43.496C268.929 42.92 270.753 42.6 272.609 42.536C274.465 42.472 276.225 42.568 277.889 42.824C278.977 43.016 280.129 43.304 281.345 43.688C282.561 44.008 283.681 44.456 284.705 45.032C285.793 45.608 286.753 46.344 287.585 47.24C288.481 48.072 289.121 49.128 289.505 50.408C289.761 51.24 289.793 52.04 289.601 52.808C289.473 53.576 289.153 54.216 288.641 54.728C288.193 55.24 287.585 55.624 286.817 55.88C286.113 56.136 285.345 56.2 284.513 56.072C283.553 55.88 282.657 55.592 281.825 55.208C280.993 54.824 280.161 54.408 279.329 53.96C278.497 53.512 277.633 53.128 276.737 52.808C275.905 52.488 275.009 52.328 274.049 52.328C272.577 52.264 271.361 52.52 270.401 53.096C269.441 53.672 268.769 54.376 268.385 55.208C268.065 56.04 268.097 56.936 268.481 57.896C268.929 58.856 269.825 59.688 271.169 60.392C272.385 61.032 273.729 61.544 275.201 61.928C276.673 62.312 278.113 62.696 279.521 63.08C280.993 63.464 282.401 63.912 283.745 64.424C285.153 64.936 286.401 65.64 287.489 66.536C289.601 68.264 290.881 70.28 291.329 72.584C291.841 74.888 291.713 77.16 290.945 79.4C290.177 81.64 288.833 83.624 286.913 85.352C285.057 87.08 282.849 88.232 280.289 88.808C278.433 89.192 276.417 89.384 274.241 89.384C272.129 89.384 270.017 89.16 267.905 88.712C265.857 88.264 263.873 87.56 261.953 86.6C260.097 85.64 258.529 84.424 257.249 82.952C256.353 81.928 255.873 80.776 255.809 79.496C255.809 78.152 256.065 77 256.577 76.04C257.153 75.016 257.953 74.312 258.977 73.928C260.001 73.544 261.153 73.768 262.433 74.6C263.457 75.304 264.673 76.008 266.081 76.712C267.489 77.352 268.897 77.864 270.305 78.248C271.713 78.632 273.057 78.824 274.337 78.824C275.681 78.824 276.833 78.536 277.793 77.96C279.201 77.064 279.937 76.04 280.001 74.888C280.065 73.672 279.649 72.744 278.753 72.104ZM310.635 48.584C312.555 47.624 314.571 46.952 316.683 46.568C318.795 46.12 320.875 46.024 322.923 46.28C325.035 46.472 327.051 47.016 328.971 47.912C330.891 48.744 332.683 49.96 334.347 51.56C336.011 53.224 337.291 55.048 338.187 57.032C339.083 59.016 339.723 61.224 340.107 63.656C340.363 65.32 340.779 66.856 341.355 68.264C341.931 69.672 342.539 71.08 343.179 72.488C343.883 73.896 344.523 75.304 345.099 76.712C345.739 78.12 346.251 79.592 346.635 81.128C346.955 82.6 346.826 84.04 346.25 85.448C345.739 86.792 344.651 87.624 342.987 87.944C342.027 88.136 341.099 88.072 340.203 87.752C339.371 87.368 338.603 86.856 337.899 86.216C337.195 85.512 336.555 84.776 335.979 84.008C335.467 83.176 334.987 82.408 334.539 81.704C333.067 83.624 331.467 85.128 329.739 86.216C328.011 87.24 325.931 87.912 323.499 88.232C321.451 88.488 319.499 88.552 317.643 88.424C315.787 88.296 313.803 87.944 311.691 87.368C308.939 86.664 306.667 85.448 304.875 83.72C303.147 81.928 301.803 79.88 300.843 77.576C299.947 75.208 299.467 72.68 299.403 69.992C299.339 67.304 299.659 64.648 300.363 62.024C301.259 58.568 302.603 55.752 304.395 53.576C306.187 51.4 308.267 49.736 310.635 48.584ZM313.035 59.816C312.139 60.712 311.435 61.768 310.923 62.984C310.411 64.2 310.091 65.48 309.963 66.824C309.899 68.168 310.027 69.512 310.347 70.856C310.667 72.2 311.179 73.384 311.883 74.408C312.523 75.304 313.611 76.072 315.147 76.712C316.683 77.288 318.283 77.64 319.947 77.768C321.867 77.896 323.531 77.384 324.939 76.232C326.411 75.08 327.499 73.64 328.203 71.912C328.971 70.12 329.323 68.232 329.259 66.248C329.195 64.2 328.651 62.344 327.627 60.68C326.859 59.464 325.835 58.568 324.555 57.992C323.339 57.416 322.027 57.128 320.619 57.128C319.211 57.064 317.803 57.288 316.395 57.8C315.051 58.248 313.931 58.92 313.035 59.816ZM354.813 28.328C354.941 26.024 355.645 24.168 356.925 22.76C358.269 21.352 360.157 20.968 362.589 21.608C363.741 21.928 364.573 22.408 365.085 23.048C365.661 23.688 366.045 24.456 366.237 25.352C366.493 26.184 366.621 27.112 366.621 28.136C366.621 29.096 366.621 30.056 366.621 31.016V44.264C366.557 44.776 366.525 45.288 366.525 45.8C366.589 46.248 366.621 46.664 366.621 47.048V48.296H369.021C369.725 48.296 370.397 48.296 371.037 48.296C371.741 48.296 372.349 48.264 372.861 48.2C376.381 48.2 379.389 48.712 381.885 49.736C384.445 50.76 386.493 52.2 388.029 54.056C389.629 55.848 390.781 58.024 391.485 60.584C392.253 63.08 392.605 65.832 392.541 68.84C392.477 72.424 391.901 75.496 390.813 78.056C389.725 80.616 388.189 82.728 386.205 84.392C384.221 86.056 381.821 87.304 379.005 88.136C376.253 88.904 373.149 89.288 369.693 89.288C365.725 89.288 362.717 89.256 360.669 89.192C358.621 89.128 357.149 88.552 356.253 87.464C355.421 86.376 354.973 84.488 354.909 81.8C354.845 79.112 354.813 75.176 354.813 69.992C354.813 65 354.813 60.072 354.813 55.208C354.877 50.344 354.877 45.448 354.813 40.52C354.813 39.88 354.781 39.208 354.717 38.504C354.717 37.8 354.717 37 354.717 36.104C354.717 35.208 354.717 34.152 354.717 32.936C354.717 31.656 354.749 30.12 354.813 28.328ZM372.765 78.536C376.285 78.344 378.717 77.384 380.061 75.656C380.765 74.696 381.309 73.544 381.693 72.2C382.077 70.856 382.237 69.512 382.173 68.168C382.109 66.824 381.821 65.544 381.309 64.328C380.861 63.048 380.125 61.992 379.101 61.16C378.205 60.392 377.309 59.848 376.413 59.528C375.517 59.144 374.589 58.92 373.629 58.856C372.669 58.728 371.645 58.696 370.557 58.76C369.469 58.76 368.221 58.792 366.813 58.856V70.376L366.621 78.344C367.261 78.408 367.933 78.472 368.637 78.536C369.853 78.664 371.229 78.664 372.765 78.536ZM412.374 52.616C412.374 54.408 412.374 56.424 412.374 58.664C412.438 60.904 412.47 63.24 412.47 65.672C412.47 68.04 412.47 70.408 412.47 72.776C412.47 75.08 412.438 77.224 412.374 79.208C412.31 80.168 412.214 81.224 412.086 82.376C411.958 83.464 411.702 84.488 411.318 85.448C410.934 86.408 410.326 87.208 409.494 87.848C408.726 88.424 407.67 88.68 406.326 88.616C404.342 88.488 402.902 87.624 402.006 86.024C401.174 84.424 400.694 82.184 400.566 79.304C400.566 77.832 400.534 76.136 400.47 74.216C400.47 72.296 400.438 70.344 400.374 68.36C400.374 66.376 400.374 64.456 400.374 62.6C400.374 60.68 400.374 58.952 400.374 57.416C400.374 56.52 400.342 55.432 400.278 54.152C400.278 52.872 400.31 51.56 400.374 50.216C400.438 48.872 400.598 47.592 400.854 46.376C401.11 45.096 401.526 44.04 402.102 43.208C402.55 42.696 403.19 42.312 404.022 42.056C404.854 41.736 405.718 41.576 406.614 41.576C407.574 41.576 408.47 41.736 409.302 42.056C410.198 42.376 410.838 42.824 411.222 43.4C411.478 43.784 411.67 44.328 411.798 45.032C411.926 45.736 412.022 46.536 412.086 47.432C412.214 48.264 412.278 49.16 412.278 50.12C412.342 51.016 412.374 51.848 412.374 52.616ZM408.726 33.224C406.742 33.736 405.078 33.544 403.734 32.648C402.454 31.688 401.654 30.28 401.334 28.424C401.078 27.08 401.174 25.896 401.622 24.872C402.07 23.848 402.742 23.08 403.638 22.568C404.534 21.992 405.558 21.736 406.71 21.8C407.862 21.864 409.014 22.312 410.166 23.144C411.254 23.912 412.022 24.808 412.47 25.832C412.982 26.856 413.142 27.848 412.95 28.808C412.822 29.768 412.406 30.664 411.702 31.496C410.998 32.264 410.006 32.84 408.726 33.224Z" fill="#1E1E1E"/>
</svg>
